<svg version="1" xmlns="http://www.w3.org/2000/svg" width="304" height="304" viewBox="0 0 228.000000 228.000000"><path d="M.2 37.7l.3 37.8.5-30c.3-16.5.7-27.3.8-24 .1 3.5.6 5.5 1 4.7.6-.9 3.1.6 9.3 5.3 4.6 3.6 10 7.8 11.9 9.3 1.9 1.5 5.7 4.5 8.5 6.7 2.7 2.2 12 9.4 20.5 16 8.5 6.5 17.7 13.7 20.3 15.8 4.6 3.8 4.7 4 3.2 6.3-3 4.6-.8 2.3 6.5-6.6 7.7-9.6 9.3-11 11.9-10.3.9.3 5.5 5.3 10.2 11.3l8.5 10.8 20-25C144.5 52.1 154.2 40.5 155 40c.8-.4 2.3-.5 3.2-.1 2.2.8 46.8 57.2 46.8 59.2 0 2.4-3.6 5.2-5.8 4.5-1.1-.4-6.1-6-11.2-12.5l-9.3-11.9-6.1 7.6c-3.4 4.3-11.7 14.8-18.5 23.5l-12.3 15.8 5.7 7.4c3.2 4.2 6.2 7.8 6.9 8.2.6.4.4-.2-.4-1.3-1.4-1.9-1.4-1.9.8 0 2.3 2 3 3.2 1.2 2.1-.5-.3-1-.3-1 0 0 .8 11.1 14.5 11.7 14.5.3 0-1.9-3-4.8-6.8-3.3-4.2-4.2-5.7-2.3-4.1 1.6 1.4 6 5 9.8 7.9 3.8 2.9 7.9 6.1 9 7.1 1.2.9 6.6 5.2 12.1 9.4 5.5 4.3 10.7 8.4 11.5 9.1.8.8 6.3 5.1 12.3 9.6 6.9 5.3 10.8 8.9 10.9 10.3 0 1.1.4-.3.8-3 .4-3.2.7 1.5.8 12.7l.2 17.7-15.7.4-15.8.3 16.3.2 16.2.2V0H0l.2 37.7z"/><path d="M138.9 74.2c-9.6 12.2-17.7 22.7-18.2 23.4-.4.8 2.2 4.9 6.9 10.9 6.2 7.9 7.9 9.4 8.9 8.3 2.4-2.6 33.3-41.5 34.5-43.5 1.2-1.9.6-3-6.1-11.6-4.1-5.3-7.7-9.6-8-9.6-.3-.1-8.4 9.9-18 22.1zM88.2 88.4c-3 3.9-3.9 5.5-2.1 3.6 1.7-1.9 2.9-3 2.5-2.3-.4.7 2.3 3.4 6.9 6.8 4.5 3.4 7.2 6.1 6.9 6.8-.4.7-1.2 1.9-1.8 2.7-.6.9.6-.2 2.6-2.5 2.1-2.2 3.8-4.3 3.8-4.7 0-.5-10.8-14.7-12.9-16.9-.3-.4-3 2.5-5.9 6.5zM79.9 98.7c-1.3 1.6-1.2 1.7.4.4.9-.7 1.7-1.5 1.7-1.7 0-.8-.8-.3-2.1 1.3zM110.2 111.2c-3.2 4-3.2 4.1-.4 1.1 2.6-2.7 3.1-2.9 3.7-1.5.5 1.2.9 1.3 1.2.4.3-.7 3 2 6.5 6.3 3.3 4.1 6.2 7.5 6.5 7.5.4 0-5.9-8.3-11.4-14.8l-2.8-3.4-3.3 4.4zM96.9 110.7c-1.3 1.6-1.2 1.7.4.4.9-.7 1.7-1.5 1.7-1.7 0-.8-.8-.3-2.1 1.3zM104.9 117.7c-1.3 1.6-1.2 1.7.4.4.9-.7 1.7-1.5 1.7-1.7 0-.8-.8-.3-2.1 1.3zM126.9 127.7c-1.3 1.6-1.2 1.7.4.4 1.6-1.3 2.1-2.1 1.3-2.1-.2 0-1 .8-1.7 1.7zM123.9 131.7c-1.3 1.6-1.2 1.7.4.4.9-.7 1.7-1.5 1.7-1.7 0-.8-.8-.3-2.1 1.3zM137.5 138c1 1.1 2 2 2.3 2 .3 0-.3-.9-1.3-2s-2-2-2.3-2c-.3 0 .3.9 1.3 2zM131.9 138.7c-1.3 1.6-1.2 1.7.4.4 1.6-1.3 2.1-2.1 1.3-2.1-.2 0-1 .8-1.7 1.7zM140 141.4c0 .2.8 1 1.8 1.7 1.5 1.3 1.6 1.2.3-.4s-2.1-2.1-2.1-1.3zM144 146.4c0 .2.8 1 1.8 1.7 1.5 1.3 1.6 1.2.3-.4s-2.1-2.1-2.1-1.3zM148 151.4c0 .2.8 1 1.8 1.7 1.5 1.3 1.6 1.2.3-.4s-2.1-2.1-2.1-1.3zM149.8 157.7c.7.3 1.6.2 1.9-.1.4-.3-.2-.6-1.3-.5-1.1 0-1.4.3-.6.6zM168.1 159.7c.7 1.2 1.5 2 1.8 1.7.3-.2-.3-1.2-1.3-2.2-1.7-1.6-1.8-1.6-.5.5z"/></svg>